<svg xmlns="http://www.w3.org/2000/svg" width="273" height="198" viewBox="0 0 273 198" fill="none"><metadata><rdf:RDF xmlns:rdf="http://www.w3.org/1999/02/22-rdf-syntax-ns#" xmlns:dc="http://purl.org/dc/elements/1.1/"><rdf:Description><dc:creator>RealFaviconGenerator</dc:creator><dc:source>https://realfavicongenerator.net</dc:source></rdf:Description></rdf:RDF></metadata><path d="M41 73.5L135.5 107V43L41 73.5Z" fill="#C2813F"></path><path d="M135.5 107L231 73.5L135.5 43V107Z" fill="#A46C33"></path><path fill-rule="evenodd" clip-rule="evenodd" d="M231 162L135.5 197.5V107L175.5 125L231 104.402V162Z" fill="#C48340"></path><path fill-rule="evenodd" clip-rule="evenodd" d="M135.5 107V197.5L41 162V104.216L97 125L135.5 107Z" fill="#D6964E"></path><path d="M135.5 107L41 73.5L0 89L41 104.216L97 125L135.5 107Z" fill="#EBB064"></path><path d="M135.5 43L231 73.5L259.5 32.5L169 0L135.5 43Z" fill="#EBB064"></path><path d="M41 73.5L135.5 43L104 0L11.5 32.5L41 73.5Z" fill="#EBB064"></path><path d="M231 73.5L135.5 107L175.5 125L231 104.402L272.5 89L231 73.5Z" fill="#EAAF63"></path></svg>